:SAMPLES-PER-SECOND 30
:FULLY-SPECIFIED
:DEGREES
123
root  -1.05368 40.5688 -1.87891 2.90126 -61.6467 2.12209
RightUpLeg  -6.94104 -4.45014 -0.418556
RightLeg  10.8171 -42.9514 -4.15858
RightFoot  -3.78542 -0.191465 2.49917
RightToes  -3.11842e-008 1.75238e-005 3.56266e-009
Spine  10.5076 4.80314 8.18211
Spine1  17.1767 4.59919 3.57742
HEad  -20.707 -16.1798 3.66853
LeftShoulder1  3.43166 -9.15225 -20.7169
LeftArm  19.9545 -51.9033 -87.1036
LeftForeArm  69.3248 -25.0977 -2.12542
LeftHand  -1.25454 -1.71221 20.5466
RightShoulder  7.09914 13.8481 34.9515
RightArm  -33.2693 40.9074 45.9809
RightForeArm  -31.3766 57.8631 20.5527
RightHand  -1.51697 5.61953 -16.1896
LeftUpLeg  -12.9357 -2.76406 2.37808
LeftLeg  2.6316 -9.18954 0.269572
LeftFoot  5.60205 0.555235 -3.95462
LeftToes  4.7713e-008 1.46693e-008 1.32589e-009
124
root  -1.17379 40.6004 -1.67676 3.28198 -65.5274 1.54719
RightUpLeg  -6.39818 -3.88925 -0.253048
RightLeg  9.19198 -39.8864 -2.80327
RightFoot  -3.52308 -0.157834 1.97605
RightToes  -3.11842e-008 1.75238e-005 3.56266e-009
Spine  9.12479 4.45085 5.79181
Spine1  17.5551 3.95282 3.70807
HEad  -20.2551 -13.8899 1.15652
LeftShoulder1  3.48945 -9.18038 -21.1363
LeftArm  21.2033 -51.7922 -87.1585
LeftForeArm  68.192 -26.2024 -2.36229
LeftHand  -1.30854 -2.00922 20.5903
RightShoulder  7.0032 13.9055 34.2718
RightArm  -34.6433 39.2072 46.4272
RightForeArm  -25.0845 60.5786 22.6243
RightHand  -1.58346 6.13791 -16.1582
LeftUpLeg  -12.3004 -1.92547 2.92602
LeftLeg  3.50434 -6.30429 0.192401
LeftFoot  4.3818 0.473206 -3.62041
LeftToes  4.7713e-008 1.46693e-008 1.32589e-009
125
root  -1.30819 40.6342 -1.43688 3.9862 -70.0428 0.753968
RightUpLeg  -6.02853 -3.27613 -0.120802
RightLeg  7.77096 -36.2308 -1.67259
RightFoot  -3.15193 -0.144391 1.76229
RightToes  -3.11842e-008 1.75238e-005 3.56266e-009
Spine  7.71682 3.9289 3.06403
Spine1  17.1669 3.1357 3.94423
HEad  -19.9043 -10.9743 -1.11263
LeftShoulder1  3.63593 -9.66586 -21.2436
LeftArm  21.4145 -51.2751 -87.0223
LeftForeArm  67.9796 -27.8347 -2.69387
LeftHand  -1.41994 -2.68679 20.4678
RightShoulder  6.89533 13.5778 34.4157
RightArm  -35.2077 37.6824 45.8084
RightForeArm  -15.6089 63.6478 25.3371
RightHand  -1.57336 6.82218 -15.1876
LeftUpLeg  -11.6017 -1.03562 3.47348
LeftLeg  4.36235 -2.96546 0.204418
LeftFoot  3.06419 0.404343 -3.34417
LeftToes  4.7713e-008 1.46693e-008 1.32589e-009
126
root  -1.49463 40.6741 -1.157 4.2825 -75.0348 0.0346052
RightUpLeg  -5.20607 -2.80856 -0.1827
RightLeg  6.43988 -31.9913 -0.775202
RightFoot  -2.80569 -0.136654 1.63369
RightToes  -3.11842e-008 1.75238e-005 3.56266e-009
Spine  6.13983 2.89754 0.532087
Spine1  16.8939 2.16136 3.24879
HEad  -19.5845 -7.19763 -2.72002
LeftShoulder1  3.69291 -9.9401 -21.0879
LeftArm  22.7581 -51.2066 -87.8621
LeftForeArm  67.7399 -28.9736 -2.93618
LeftHand  -1.53789 -2.88693 21.612
RightShoulder  6.84516 13.3032 34.7753
RightArm  -35.4312 36.6893 44.6202
RightForeArm  -7.11462 67.1007 29.5233
RightHand  -1.74522 7.90066 -15.4911
LeftUpLeg  -10.1718 -0.234464 3.76621
LeftLeg  4.96484 0.926034 0.362017
LeftFoot  1.72249 0.348236 -3.14104
LeftToes  4.7713e-008 1.46693e-008 1.32589e-009
127
root  -1.73872 40.7149 -0.882914 4.41668 -80.3478 -0.894087
RightUpLeg  -3.84232 -2.11651 0.0237224
RightLeg  4.96203 -27.8521 -0.126607
RightFoot  -2.3617 -0.123724 1.42159
RightToes  -3.11842e-008 1.75238e-005 3.56266e-009
Spine  4.66866 1.66709 -2.46511
Spine1  16.2304 0.759826 3.39122
HEad  -18.5918 -2.49735 -4.73907
LeftShoulder1  3.9165 -10.4591 -21.7125
LeftArm  24.2231 -51.119 -87.3711
LeftForeArm  66.1143 -31.1955 -3.45782
LeftHand  -1.64645 -3.04217 22.6651
RightShoulder  6.66126 12.9528 34.5295
RightArm  -35.5372 36.053 43.6147
RightForeArm  1.76697 70.5642 35.6351
RightHand  -1.65191 7.78218 -14.8185
LeftUpLeg  -8.19136 0.963725 4.24419
LeftLeg  5.51491 4.62253 0.397344
LeftFoot  0.268274 0.328337 -3.23488
LeftToes  4.7713e-008 1.46693e-008 1.32589e-009
128
root  -2.04147 40.7412 -0.600599 23.1981 -85.909 -20.5756
RightUpLeg  -2.44571 -1.58647 0.0838222
RightLeg  3.8857 -23.2904 0.247129
RightFoot  -2.09153 -0.114601 1.2661
RightToes  -3.11842e-008 1.75238e-005 3.56266e-009
Spine  3.06259 0.103291 -5.20187
Spine1  15.7292 -0.882693 3.39701
HEad  -18.0075 2.72341 -6.37643
LeftShoulder1  3.95647 -10.3945 -22.1536
LeftArm  26.3147 -51.5769 -87.769
LeftForeArm  64.333 -33.7154 -4.07949
LeftHand  -1.76518 -3.03413 24.2783
RightShoulder  6.33955 12.5664 33.5153
RightArm  -35.8087 35.9458 43.3885
RightForeArm  14.0278 74.0755 45.4896
RightHand  -1.6486 8.1631 -14.3917
LeftUpLeg  -5.80542 1.98148 4.52599
LeftLeg  5.79929 8.82761 0.53088
LeftFoot  -1.01695 0.269699 -2.93141
LeftToes  4.7713e-008 1.46693e-008 1.32589e-009
129
root  -2.3639 40.7631 -0.346061 106.608 -88.5631 -104.971
RightUpLeg  -0.986718 -0.997765 0.26542
RightLeg  2.95929 -18.9123 0.364421
RightFoot  -1.80832 -0.105766 1.1131
RightToes  -3.11842e-008 1.75238e-005 3.56266e-009
Spine  1.84009 -1.55207 -7.41359
Spine1  14.8274 -2.60068 3.47971
HEad  -17.7637 8.21033 -7.7829
LeftShoulder1  4.15969 -10.8365 -22.7205
LeftArm  26.9015 -51.8916 -88.3709
LeftForeArm  64.6329 -36.7862 -4.78666
LeftHand  -1.77614 -2.71152 25.3495
RightShoulder  6.05129 12.2616 32.4523
RightArm  -36.861 36.5048 42.8982
RightForeArm  30.1974 76.9835 61.0839
RightHand  -1.71085 8.79626 -14.2733
LeftUpLeg  -3.25961 2.96219 4.88103
LeftLeg  5.92536 12.8918 0.628257
LeftFoot  -2.27585 0.278502 -3.32928
LeftToes  4.7713e-008 1.46693e-008 1.32589e-009
130
root  -2.71441 40.7527 -0.109577 170.704 -83.4919 -169.985
RightUpLeg  0.298321 -0.456997 0.61025
RightLeg  2.41678 -14.679 0.308584
RightFoot  -1.66196 -0.128969 1.45572
RightToes  -3.11842e-008 1.75238e-005 3.56266e-009
Spine  1.60389 -3.2207 -8.76485
Spine1  12.6404 -4.35187 3.7262
HEad  -16.7445 12.7848 -9.20614
LeftShoulder1  4.42971 -11.2767 -23.7425
LeftArm  28.4791 -52.3784 -88.9206
LeftForeArm  64.411 -40.1923 -5.66536
LeftHand  -1.92811 -3.00465 26.4885
RightShoulder  5.70998 11.8309 31.2969
RightArm  -38.1738 37.5795 41.9212
RightForeArm  51.2301 78.4739 80.6583
RightHand  -1.57934 8.64435 -13.3596
LeftUpLeg  -0.857454 3.84723 5.29686
LeftLeg  6.22403 16.8663 0.88219
LeftFoot  -3.57334 0.238394 -3.20185
LeftToes  4.7713e-008 1.46693e-008 1.32589e-009
131
root  -3.10112 40.7275 0.0589193 168.938 -79.1582 -168.883
RightUpLeg  1.31906 -0.0985943 0.802747
RightLeg  2.11947 -11.0473 0.256632
RightFoot  -1.80481 -0.139199 1.59599
RightToes  -3.11842e-008 1.75238e-005 3.56266e-009
Spine  0.2326 -5.28818 -9.89905
Spine1  12.3117 -6.38822 3.5411
HEad  -16.7847 17.0719 -10.395
LeftShoulder1  4.45487 -11.4784 -23.4828
LeftArm  29.9089 -53.3155 -90.6966
LeftForeArm  65.4967 -44.4546 -6.82453
LeftHand  -2.31689 -4.29734 27.5797
RightShoulder  5.41426 11.4689 30.2187
RightArm  -40.1085 39.9751 40.6055
RightForeArm  73.874 78.4567 101.758
RightHand  -1.68921 9.34466 -13.606
LeftUpLeg  1.11898 4.3299 5.45895
LeftLeg  6.59594 20.4258 1.3086
LeftFoot  -4.6144 0.238773 -3.59202
LeftToes  4.7713e-008 1.46693e-008 1.32589e-009
132
root  -3.46374 40.7028 0.173364 170.202 -75.0074 -170.613
RightUpLeg  1.77988 0.41718 1.01015
RightLeg  2.53557 -7.45517 -0.0971029
RightFoot  -2.08695 -0.161976 1.93033
RightToes  -3.11842e-008 1.75238e-005 3.56266e-009
Spine  -1.18529 -7.33893 -10.5513
Spine1  12.5866 -8.2754 2.87578
HEad  -17.4588 20.8492 -10.9962
LeftShoulder1  4.18969 -11.0981 -22.3936
LeftArm  32.9879 -54.5835 -93.935
LeftForeArm  68.4542 -49.106 -8.21328
LeftHand  -2.4192 -4.32337 28.6439
RightShoulder  5.36308 11.2822 30.3239
RightArm  -42.3263 43.2712 38.5378
RightForeArm  93.4682 77.0465 119.917
RightHand  -1.72408 9.57999 -13.67
LeftUpLeg  2.98967 4.98013 5.64911
LeftLeg  6.59132 23.7416 1.35372
LeftFoot  -5.43361 0.239303 -4.00266
LeftToes  4.7713e-008 1.46693e-008 1.32589e-009
133
root  -3.786 40.6743 0.231786 170.667 -71.5159 -171.413
RightUpLeg  2.06052 0.90466 1.26172
RightLeg  3.01151 -4.62004 -0.390849
RightFoot  -2.36956 -0.180818 2.20351
RightToes  -3.11842e-008 1.75238e-005 3.56266e-009
Spine  -1.15399 -8.71287 -12.1032
Spine1  10.9991 -10.0943 4.60895
HEad  -17.2375 23.222 -12.1814
LeftShoulder1  4.29184 -11.3877 -22.524
LeftArm  36.6191 -55.6108 -96.6076
LeftForeArm  70.9745 -54.0677 -10.0618
LeftHand  -2.67987 -5.15046 29.2257
RightShoulder  5.02986 10.8047 29.192
RightArm  -45.4179 45.5284 36.7651
RightForeArm  109.607 74.4684 134.565
RightHand  -1.75128 9.73536 -13.7381
LeftUpLeg  4.64933 5.48456 5.79761
LeftLeg  6.32628 26.5826 1.31642
LeftFoot  -6.00394 0.241513 -4.40995
LeftToes  4.7713e-008 1.46693e-008 1.32589e-009
134
root  -4.10108 40.6456 0.230974 170.712 -68.8985 -171.547
RightUpLeg  2.34731 1.41661 1.60953
RightLeg  3.17698 -2.70123 -0.632156
RightFoot  -2.66721 -0.195875 2.41831
RightToes  -3.11842e-008 1.75238e-005 3.56266e-009
Spine  -0.734252 -10.0243 -14.1101
Spine1  9.01918 -12.0383 7.43757
HEad  -16.3422 25.1823 -13.1734
LeftShoulder1  4.46596 -11.8004 -22.903
LeftArm  40.5645 -56.729 -98.8241
LeftForeArm  73.6318 -58.7397 -12.204
LeftHand  -2.76898 -5.38101 29.5384
RightShoulder  4.77525 10.4939 28.1269
RightArm  -48.6621 46.6543 34.3442
RightForeArm  120.802 71.6518 143.557
RightHand  -2.1347 11.3249 -15.0851
LeftUpLeg  5.82456 5.76033 5.89746
LeftLeg  6.17745 28.8325 1.4453
LeftFoot  -6.45619 0.248179 -4.90583
LeftToes  4.7713e-008 1.46693e-008 1.32589e-009
135
root  -4.37451 40.6167 0.200134 171.267 -66.7859 -171.977
RightUpLeg  2.29539 1.78828 1.75264
RightLeg  3.50909 -1.0327 -0.823152
RightFoot  -3.08581 -0.205117 2.54371
RightToes  -3.11842e-008 1.75238e-005 3.56266e-009
Spine  -0.00437716 -11.1035 -16.4358
Spine1  6.71241 -13.7494 10.8276
HEad  -15.0812 26.5926 -13.9917
LeftShoulder1  4.56511 -11.9888 -23.2028
LeftArm  44.5513 -57.5099 -102.26
LeftForeArm  77.0945 -61.7457 -13.8539
LeftHand  -3.03514 -6.42649 29.5153
RightShoulder  4.51082 10.1653 26.9752
RightArm  -51.6505 47.7004 33.2223
RightForeArm  129.283 68.3672 150.431
RightHand  -2.45297 12.4235 -16.2363
LeftUpLeg  6.6903 5.94179 5.84332
LeftLeg  5.79195 30.7409 1.31629
LeftFoot  -6.73641 0.249803 -5.20774
LeftToes  4.7713e-008 1.46693e-008 1.32589e-009
136
root  -4.58873 40.5944 0.143476 171.484 -65.423 -171.918
RightUpLeg  2.15214 1.9525 1.8956
RightLeg  3.72324 0.0516921 -0.753602
RightFoot  -3.39782 -0.205374 2.53099
RightToes  -3.11842e-008 1.75238e-005 3.56266e-009
Spine  0.23585 -12.169 -18.5113
Spine1  5.60922 -15.3143 13.7489
HEad  -14.0153 27.7528 -14.3136
LeftShoulder1  4.43009 -11.8279 -22.6032
LeftArm  48.9961 -58.0489 -106.853
LeftForeArm  79.0327 -63.4136 -14.9234
LeftHand  -3.03049 -6.24048 29.9105
RightShoulder  4.24806 9.60629 26.3619
RightArm  -54.0704 48.4515 31.9093
RightForeArm  134.922 65.6845 154.438
RightHand  -2.09193 11.7122 -14.505
LeftUpLeg  7.09569 6.06326 5.9037
LeftLeg  5.63329 31.9122 1.33415
LeftFoot  -6.96936 0.253027 -5.5308
LeftToes  4.7713e-008 1.46693e-008 1.32589e-009
